<?xml version="1.0" encoding="UTF-8" standalone="no"?><!DOCTYPE svg PUBLIC "-//W3C//DTD SVG 1.1//EN" "http://www.w3.org/Graphics/SVG/1.1/DTD/svg11.dtd"><svg width="100%" height="100%" viewBox="0 0 545 253" version="1.1" xmlns="http://www.w3.org/2000/svg" xmlns:xlink="http://www.w3.org/1999/xlink" xml:space="preserve" style="fill-rule:evenodd;clip-rule:evenodd;stroke-linecap:round;stroke-linejoin:round;stroke-miterlimit:1.5;"><path d="M336.225,171.155c0.546,0.404 10.424,6.315 10.056,9.256" style="fill:none;stroke:#000;stroke-width:1px;"/><path d="M336.731,180.434c3.517,-2.494 8.476,-4.466 11.766,-7.143" style="fill:none;stroke:#000;stroke-width:1px;"/><path d="M396.387,165.986c3.082,1.423 7.493,2.879 10.47,4.865" style="fill:none;stroke:#000;stroke-width:1px;"/><path d="M398.841,171.408c0.324,-0.486 2.897,-5.501 4.44,-6.756" style="fill:none;stroke:#000;stroke-width:1px;"/><path d="M393.927,126.247c2.612,0.899 8.118,3.781 11.405,4.193" style="fill:none;stroke:#000;stroke-width:1px;"/><path d="M397.506,133.1c1.541,-2.262 2.846,-4.625 4.796,-6.538c0.515,-0.506 3.015,-1.99 3.101,-2.676" style="fill:none;stroke:#000;stroke-width:1px;"/><path d="M430.104,142.073c1.854,0.666 6.931,3.181 9.66,3.523" style="fill:none;stroke:#000;stroke-width:1px;"/><path d="M431.351,147.709c1.355,-2.596 4.137,-4.64 4.501,-7.546" style="fill:none;stroke:#000;stroke-width:1px;"/><path d="M430.242,119.877c1.866,0.887 7.769,4.707 10.77,5.083" style="fill:none;stroke:#000;stroke-width:1px;"/><path d="M432.57,126.438c0.659,-1.504 1.721,-5.293 3.544,-6.776" style="fill:none;stroke:#000;stroke-width:1px;"/><path d="M472.508,107.288c1.097,0.718 8.506,7.113 11.138,7.442" style="fill:none;stroke:#000;stroke-width:1px;"/><path d="M471.352,115.843c3.3,-2.93 6.7,-5.768 10.083,-8.521" style="fill:none;stroke:#000;stroke-width:1px;"/><path d="M472.49,76.233c1.652,1.044 3.323,2.057 4.956,3.131c0.397,0.261 2.008,2.903 2.398,2.952" style="fill:none;stroke:#000;stroke-width:1px;"/><path d="M472.985,83.69c1.658,-2.228 3.156,-4.417 5.013,-6.425c0.624,-0.676 3.075,-1.821 3.18,-2.657" style="fill:none;stroke:#000;stroke-width:1px;"/><path d="M363.451,158.19c1.397,0.778 5.839,4.438 7.53,4.65" style="fill:none;stroke:#000;stroke-width:1px;"/><path d="M363.996,164.731c1.733,-2.032 3.595,-3.909 5.292,-5.917c0.479,-0.568 2.566,-1.576 2.633,-2.111" style="fill:none;stroke:#000;stroke-width:1px;"/><path d="M45.365,192.826c0.583,0.347 11.001,5.245 10.927,8.208" style="fill:none;stroke:#000;stroke-width:1px;"/><path d="M46.792,202.009c3.252,-2.833 7.989,-5.289 10.996,-8.28" style="fill:none;stroke:#000;stroke-width:1px;"/><path d="M104.712,181.688c3.209,1.109 7.743,2.119 10.903,3.798" style="fill:none;stroke:#000;stroke-width:1px;"/><path d="M107.694,186.839c0.274,-0.516 2.335,-5.762 3.745,-7.165" style="fill:none;stroke:#000;stroke-width:1px;"/><path d="M98.305,142.392c2.688,0.635 8.454,2.954 11.766,3.036" style="fill:none;stroke:#000;stroke-width:1px;"/><path d="M102.549,148.855c1.308,-2.405 2.371,-4.886 4.121,-6.983c0.462,-0.555 2.802,-2.281 2.819,-2.972" style="fill:none;stroke:#000;stroke-width:1px;"/><path d="M135.879,154.536c1.911,0.477 7.214,2.474 9.963,2.542" style="fill:none;stroke:#000;stroke-width:1px;"/><path d="M137.681,160.02c1.09,-2.719 3.654,-5.03 3.727,-7.958" style="fill:none;stroke:#000;stroke-width:1px;"/><path d="M133.805,132.436c1.945,0.697 8.199,3.91 11.222,3.985" style="fill:none;stroke:#000;stroke-width:1px;"/><path d="M136.775,138.732c0.506,-1.562 1.185,-5.438 2.851,-7.095" style="fill:none;stroke:#000;stroke-width:1px;"/><path d="M174.607,115.699c1.162,0.605 9.172,6.23 11.823,6.295" style="fill:none;stroke:#000;stroke-width:1px;"/><path d="M174.309,124.326c2.991,-3.244 6.091,-6.406 9.183,-9.483" style="fill:none;stroke:#000;stroke-width:1px;"/><path d="M171.494,84.8c1.748,0.874 3.512,1.715 5.243,2.621c0.421,0.221 2.288,2.69 2.681,2.699" style="fill:none;stroke:#000;stroke-width:1px;"/><path d="M172.73,92.171c1.427,-2.382 2.7,-4.709 4.347,-6.893c0.555,-0.735 2.879,-2.118 2.9,-2.961" style="fill:none;stroke:#000;stroke-width:1px;"/><path d="M71.163,177.213c1.468,0.634 6.252,3.834 7.956,3.877" style="fill:none;stroke:#000;stroke-width:1px;"/><path d="M72.357,183.668c1.522,-2.196 3.188,-4.248 4.676,-6.416c0.421,-0.612 2.396,-1.824 2.41,-2.363" style="fill:none;stroke:#000;stroke-width:1px;"/><path d="M48.823,208.368l156.773,-124.186" style="fill:none;stroke:#000;stroke-width:1px;"/><path d="M414.065,246.994l3.587,-199.968" style="fill:none;stroke:#000;stroke-width:1px;"/><path d="M105.235,144.499l9.337,11.787" style="fill:#f20d0d;stroke:#f20d0d;stroke-width:0.5px;"/><path d="M98.111,169.325l11.177,14.11" style="fill:#f20d0d;stroke:#f20d0d;stroke-width:0.5px;"/><path d="M75.573,179.524l3.725,4.704" style="fill:#f20d0d;stroke:#f20d0d;stroke-width:0.5px;"/><path d="M53.586,196.941l3.726,4.703" style="fill:#f20d0d;stroke:#f20d0d;stroke-width:0.5px;"/><path d="M130.211,143.897l9.314,11.758" style="fill:#f20d0d;stroke:#f20d0d;stroke-width:0.5px;"/><path d="M137.755,134.095l1.863,2.351" style="fill:#f20d0d;stroke:#f20d0d;stroke-width:0.5px;"/><path d="M172.54,110.367l6.52,8.231" style="fill:#f20d0d;stroke:#f20d0d;stroke-width:0.5px;"/><path d="M175.931,87.269l9.935,12.542" style="fill:#f20d0d;stroke:#f20d0d;stroke-width:0.5px;"/><path d="M344.183,176.891l71.117,1.276" style="fill:#f20d0d;stroke:#f20d0d;stroke-width:0.5px;"/><path d="M401.622,168.418l13.848,0.249" style="fill:#f20d0d;stroke:#f20d0d;stroke-width:0.5px;"/><path d="M367.753,160.809l47.843,0.859" style="fill:#f20d0d;stroke:#f20d0d;stroke-width:0.5px;"/><path d="M400.34,128.389l15.848,0.284" style="fill:#f20d0d;stroke:#f20d0d;stroke-width:0.5px;"/><path d="M415.918,143.671l17.998,0.323" style="fill:#f20d0d;stroke:#f20d0d;stroke-width:0.5px;"/><path d="M416.313,121.674l17.997,0.323" style="fill:#f20d0d;stroke:#f20d0d;stroke-width:0.5px;"/><path d="M416.528,109.676l59.991,1.076" style="fill:#f20d0d;stroke:#f20d0d;stroke-width:0.5px;"/><path d="M417.102,77.681l59.991,1.077" style="fill:#f20d0d;stroke:#f20d0d;stroke-width:0.5px;"/><text x="89.45px" y="50.984px" style="font-family:'ArialMT', 'Arial', sans-serif;font-size:10px;">Good projection</text><text x="364.785px" y="32.984px" style="font-family:'ArialMT', 'Arial', sans-serif;font-size:10px;">Bad projection</text></svg>