<?xml version="1.0" encoding="UTF-8" standalone="no"?><!DOCTYPE svg PUBLIC "-//W3C//DTD SVG 1.1//EN" "http://www.w3.org/Graphics/SVG/1.1/DTD/svg11.dtd"><svg width="100%" height="100%" viewBox="0 0 588 236" version="1.1" xmlns="http://www.w3.org/2000/svg" xmlns:xlink="http://www.w3.org/1999/xlink" xml:space="preserve" style="fill-rule:evenodd;clip-rule:evenodd;stroke-linecap:round;stroke-linejoin:round;stroke-miterlimit:1.5;"><path d="M61.277,141.666c0.583,0.349 10.991,5.267 10.912,8.23" style="fill:none;stroke:#000;stroke-width:1px;"/><path d="M62.687,150.852c3.257,-2.826 7.999,-5.273 11.012,-8.258" style="fill:none;stroke:#000;stroke-width:1px;"/><path d="M120.646,130.643c3.206,1.116 7.738,2.134 10.895,3.819" style="fill:none;stroke:#000;stroke-width:1px;"/><path d="M123.618,135.8c0.275,-0.515 2.346,-5.758 3.758,-7.157" style="fill:none;stroke:#000;stroke-width:1px;"/><path d="M114.315,91.335c2.686,0.64 8.448,2.97 11.76,3.058" style="fill:none;stroke:#000;stroke-width:1px;"/><path d="M118.546,97.806c1.312,-2.402 2.381,-4.882 4.134,-6.975c0.464,-0.554 2.807,-2.275 2.825,-2.966" style="fill:none;stroke:#000;stroke-width:1px;"/><path d="M151.865,103.551c1.91,0.481 7.209,2.488 9.958,2.562" style="fill:none;stroke:#000;stroke-width:1px;"/><path d="M153.657,109.038c1.095,-2.717 3.663,-5.022 3.742,-7.95" style="fill:none;stroke:#000;stroke-width:1px;"/><path d="M149.833,81.447c1.944,0.701 8.192,3.926 11.215,4.007" style="fill:none;stroke:#000;stroke-width:1px;"/><path d="M152.791,87.749c0.509,-1.561 1.196,-5.435 2.865,-7.09" style="fill:none;stroke:#000;stroke-width:1px;"/><path d="M190.668,64.789c1.161,0.606 9.16,6.247 11.811,6.318" style="fill:none;stroke:#000;stroke-width:1px;"/><path d="M190.353,73.416c2.998,-3.239 6.104,-6.395 9.202,-9.466" style="fill:none;stroke:#000;stroke-width:1px;"/><path d="M187.614,33.884c1.746,0.877 3.509,1.722 5.238,2.631c0.421,0.221 2.283,2.694 2.676,2.704" style="fill:none;stroke:#000;stroke-width:1px;"/><path d="M188.836,41.257c1.432,-2.38 2.709,-4.704 4.36,-6.885c0.556,-0.733 2.883,-2.112 2.906,-2.955" style="fill:none;stroke:#000;stroke-width:1px;"/><path d="M87.105,126.103c1.467,0.638 6.245,3.847 7.949,3.893" style="fill:none;stroke:#000;stroke-width:1px;"/><path d="M88.287,132.56c1.527,-2.192 3.197,-4.241 4.689,-6.406c0.421,-0.612 2.399,-1.82 2.414,-2.358" style="fill:none;stroke:#000;stroke-width:1px;"/><path d="M64.706,157.216l157.011,-123.885" style="fill:none;stroke:#000;stroke-width:1px;"/><path d="M121.241,93.455l9.314,11.805" style="fill:#f20d0d;stroke:#f20d0d;stroke-width:0.5px;"/><path d="M114.069,118.268l11.149,14.131" style="fill:#f20d0d;stroke:#f20d0d;stroke-width:0.5px;"/><path d="M91.511,128.424l3.716,4.71" style="fill:#f20d0d;stroke:#f20d0d;stroke-width:0.5px;"/><path d="M69.491,145.798l3.717,4.71" style="fill:#f20d0d;stroke:#f20d0d;stroke-width:0.5px;"/><path d="M146.218,92.902l9.291,11.775" style="fill:#f20d0d;stroke:#f20d0d;stroke-width:0.5px;"/><path d="M153.78,83.113l1.859,2.355" style="fill:#f20d0d;stroke:#f20d0d;stroke-width:0.5px;"/><path d="M188.611,59.453l6.504,8.243" style="fill:#f20d0d;stroke:#f20d0d;stroke-width:0.5px;"/><path d="M192.046,36.362l9.911,12.561" style="fill:#f20d0d;stroke:#f20d0d;stroke-width:0.5px;"/><path d="M366.745,95.168c0.563,0.379 10.7,5.835 10.466,8.79" style="fill:none;stroke:#000;stroke-width:1px;"/><path d="M367.672,104.415c3.4,-2.651 8.264,-4.847 11.429,-7.67" style="fill:none;stroke:#000;stroke-width:1px;"/><path d="M425.77,95.735c1.852,2.845 4.812,6.425 6.276,9.69" style="fill:none;stroke:#000;stroke-width:1px;"/><path d="M424.963,101.632c0.533,-0.239 5.379,-3.116 7.353,-3.358" style="fill:none;stroke:#000;stroke-width:1px;"/><path d="M444.83,93.403c1.733,2.15 4.862,7.52 7.426,9.618" style="fill:none;stroke:#000;stroke-width:1px;"/><path d="M444.214,101.11c2.509,-1.096 4.871,-2.403 7.539,-2.984c0.706,-0.154 3.612,-0.081 4.05,-0.616" style="fill:none;stroke:#000;stroke-width:1px;"/><path d="M467.21,95.973c1.216,1.55 4.176,6.381 6.305,8.122" style="fill:none;stroke:#000;stroke-width:1px;"/><path d="M465.267,101.408c2.529,-1.477 5.972,-1.728 7.826,-3.995" style="fill:none;stroke:#000;stroke-width:1px;"/><path d="M478.968,95.245c1.108,1.744 4.073,8.119 6.414,10.034" style="fill:none;stroke:#000;stroke-width:1px;"/><path d="M477.448,102.038c1.359,-0.922 4.273,-3.565 6.606,-3.851" style="fill:none;stroke:#000;stroke-width:1px;"/><path d="M519.767,93.83c0.861,0.988 6.258,9.153 8.701,10.184" style="fill:none;stroke:#000;stroke-width:1px;"/><path d="M516.334,101.75c3.971,-1.925 8.013,-3.734 12.016,-5.466" style="fill:none;stroke:#000;stroke-width:1px;"/><path d="M537.96,93.83c0.843,1.762 1.72,3.509 2.531,5.287c0.197,0.432 0.155,3.527 0.459,3.776" style="fill:none;stroke:#000;stroke-width:1px;"/><path d="M534.412,100.407c2.589,-1.004 5.022,-2.06 7.663,-2.773c0.888,-0.241 3.572,0.095 4.106,-0.558" style="fill:none;stroke:#000;stroke-width:1px;"/><path d="M402.03,95.168c0.77,1.402 2.583,6.865 3.902,7.944" style="fill:none;stroke:#000;stroke-width:1px;"/><path d="M399.011,100.997c2.549,-0.799 5.124,-1.397 7.629,-2.194c0.708,-0.226 3.012,0.03 3.353,-0.387" style="fill:none;stroke:#000;stroke-width:1px;"/><path d="M365.271,100.034l199.992,-1.822" style="fill:none;stroke:#000;stroke-width:1px;"/><path d="M40,193.821l193.5,0" style="fill:none;stroke:#000;stroke-width:1px;"/><path d="M40,193.821l0,-190" style="fill:none;stroke:#000;stroke-width:1px;"/><text x="117.302px" y="214.984px" style="font-family:'ArialMT', 'Arial', sans-serif;font-size:10px;">Pilot skill</text><text x="430.841px" y="77.993px" style="font-family:'ArialMT', 'Arial', sans-serif;font-size:10px;">Pilot aptitude</text><g transform="matrix(0.000753451,-1,1,0.000753451,-452.85,35.1047)"><text x="-97.544px" y="469.311px" style="font-family:'ArialMT', 'Arial', sans-serif;font-size:10px;">Pilot enjoyment</text></g><path d="M259,103.74l0,-8.067l67.831,0l0,-7.136l11.169,11.17l-11.169,11.169l0,-7.136l-67.831,0Z" style="stroke:#000;stroke-width:1px;"/></svg>