<?xml version="1.0" encoding="UTF-8" standalone="no"?><!DOCTYPE svg PUBLIC "-//W3C//DTD SVG 1.1//EN" "http://www.w3.org/Graphics/SVG/1.1/DTD/svg11.dtd"><svg width="100%" height="100%" viewBox="0 0 288 113" version="1.1" xmlns="http://www.w3.org/2000/svg" xmlns:xlink="http://www.w3.org/1999/xlink" xml:space="preserve" style="fill-rule:evenodd;clip-rule:evenodd;stroke-linecap:round;stroke-linejoin:round;stroke-miterlimit:1.5;"><text x="202.57px" y="40.499px" style="font-family:'ArialMT', 'Arial', sans-serif;font-size:10px;">Projection error</text><path d="M26,70l171,0" style="fill:none;stroke:#000;stroke-width:1px;"/><path d="M52.958,49.9c0.557,0.506 5.116,3.676 5.116,5.678" style="fill:none;stroke:#000;stroke-width:1px;"/><path d="M52.74,56.814c3.417,-3.545 6.78,-5.5 11.083,-7.749" style="fill:none;stroke:#000;stroke-width:1px;"/><path d="M78.373,90.095c1.424,1.164 2.821,2.244 4.266,3.352c0.292,0.224 2.149,1.737 1.459,2.043" style="fill:none;stroke:#000;stroke-width:1px;"/><path d="M78.101,96.527c1.927,-2.36 4.074,-4.411 6.113,-6.543" style="fill:none;stroke:#000;stroke-width:1px;"/><path d="M140.237,24.264c1.126,0.589 2.253,1.178 3.379,1.767c0.701,0.366 4.943,1.804 4.943,3.432" style="fill:none;stroke:#000;stroke-width:1px;"/><path d="M143.143,30.887c1.018,-1.701 2.184,-3.363 3.003,-5.174c0.129,-0.286 1.433,-3.036 1.906,-3.036" style="fill:none;stroke:#000;stroke-width:1px;"/><path d="M119.994,80.293c0.21,0.186 5.482,4.232 5.482,5.617" style="fill:none;stroke:#000;stroke-width:1px;"/><path d="M120.395,86.194c1.175,-1.115 4.505,-4.765 6.73,-4.765" style="fill:none;stroke:#000;stroke-width:1px;"/><path d="M57,54l0,16" style="fill:#f20d0d;stroke:#f20d0d;stroke-width:0.5px;"/><path d="M82,93l0,-23" style="stroke:#f20d0d;stroke-width:0.5px;"/><path d="M123.76,83.102l0,-13.102" style="stroke:#f20d0d;stroke-width:0.5px;"/><path d="M146,27l0,43" style="stroke:#f20d0d;stroke-width:0.5px;"/><path d="M162.996,48.824l0.52,1.893l-3.266,-1.858l1.858,-3.266l0.52,1.893l31.034,-8.532l0.368,1.338l-31.034,8.532Z" style="stroke:#000;stroke-width:1.5px;"/></svg>