<?xml version="1.0" encoding="UTF-8" standalone="no"?><!DOCTYPE svg PUBLIC "-//W3C//DTD SVG 1.1//EN" "http://www.w3.org/Graphics/SVG/1.1/DTD/svg11.dtd"><svg width="100%" height="100%" viewBox="0 0 261 230" version="1.1" xmlns="http://www.w3.org/2000/svg" xmlns:xlink="http://www.w3.org/1999/xlink" xml:space="preserve" style="fill-rule:evenodd;clip-rule:evenodd;stroke-linecap:round;stroke-linejoin:round;stroke-miterlimit:1.5;"><path d="M40,194l193.5,0" style="fill:none;stroke:#000;stroke-width:1px;"/><path d="M40,194l0,-190" style="fill:none;stroke:#000;stroke-width:1px;"/><text x="117.302px" y="215.163px" style="font-family:'ArialMT', 'Arial', sans-serif;font-size:10px;">Pilot skill</text><g transform="matrix(0.000753451,-1,1,0.000753451,-453.029,35.2835)"><text x="-97.544px" y="469.49px" style="font-family:'ArialMT', 'Arial', sans-serif;font-size:10px;">Pilot enjoyment</text></g><path d="M64.303,136.375c0.592,0.333 11.128,4.971 11.128,7.935" style="fill:none;stroke:#000;stroke-width:1px;"/><path d="M65.958,145.52c3.18,-2.912 7.856,-5.485 10.787,-8.55" style="fill:none;stroke:#000;stroke-width:1px;"/><path d="M123.356,123.77c3.235,1.03 7.793,1.926 10.994,3.527" style="fill:none;stroke:#000;stroke-width:1px;"/><path d="M126.465,128.846c0.262,-0.523 2.191,-5.818 3.566,-7.256" style="fill:none;stroke:#000;stroke-width:1px;"/><path d="M115.978,84.645c2.702,0.568 8.524,2.743 11.837,2.743" style="fill:none;stroke:#000;stroke-width:1px;"/><path d="M120.381,91.001c1.247,-2.437 2.249,-4.944 3.945,-7.083c0.449,-0.566 2.745,-2.35 2.745,-3.041" style="fill:none;stroke:#000;stroke-width:1px;"/><path d="M153.84,95.854c1.923,0.43 7.273,2.294 10.024,2.294" style="fill:none;stroke:#000;stroke-width:1px;"/><path d="M155.778,101.291c1.022,-2.745 3.529,-5.119 3.529,-8.048" style="fill:none;stroke:#000;stroke-width:1px;"/><path d="M151.219,73.812c1.962,0.649 8.294,3.705 11.318,3.705" style="fill:none;stroke:#000;stroke-width:1px;"/><path d="M154.344,80.033c0.468,-1.575 1.05,-5.466 2.675,-7.164" style="fill:none;stroke:#000;stroke-width:1px;"/><path d="M191.594,56.069c1.177,0.575 9.324,6 11.976,6" style="fill:none;stroke:#000;stroke-width:1px;"/><path d="M191.51,64.701c2.91,-3.318 5.931,-6.556 8.946,-9.708" style="fill:none;stroke:#000;stroke-width:1px;"/><path d="M187.716,25.257c1.769,0.83 3.554,1.627 5.307,2.49c0.426,0.21 2.354,2.632 2.746,2.632" style="fill:none;stroke:#000;stroke-width:1px;"/><path d="M189.134,32.595c1.368,-2.417 2.583,-4.775 4.176,-6.999c0.535,-0.749 2.825,-2.188 2.825,-3.032" style="fill:none;stroke:#000;stroke-width:1px;"/><path d="M89.707,120.128c1.483,0.598 6.345,3.678 8.049,3.678" style="fill:none;stroke:#000;stroke-width:1px;"/><path d="M91.06,126.551c1.468,-2.232 3.082,-4.326 4.516,-6.529c0.405,-0.623 2.35,-1.883 2.35,-2.422" style="fill:none;stroke:#000;stroke-width:1px;"/></svg>